<svg xmlns="http://www.w3.org/2000/svg" width="30" height="29" fill="none" viewBox="0 0 30 29">
  <rect width="30" height="29" fill="#DAEAE2" fill-opacity=".8" rx="7"/>
  <path fill="#285541" d="m15.09 20.559-.09.087-.099-.087C10.626 16.8 7.8 14.315 7.8 11.796c0-1.744 1.35-3.052 3.15-3.052 1.386 0 2.736.872 3.213 2.058h1.674c.477-1.186 1.827-2.058 3.213-2.058 1.8 0 3.15 1.308 3.15 3.052 0 2.52-2.826 5.005-7.11 8.763ZM19.05 7A5.486 5.486 0 0 0 15 8.814 5.486 5.486 0 0 0 10.95 7C8.178 7 6 9.101 6 11.796c0 3.287 3.06 5.981 7.695 10.053L15 23l1.305-1.151C20.94 17.777 24 15.083 24 11.796 24 9.1 21.822 7 19.05 7Z"/>
</svg>
