<svg xmlns="http://www.w3.org/2000/svg" width="30" height="30" fill="none" viewBox="0 0 30 30">
  <circle cx="15" cy="15" r="15" fill="#fff" fill-opacity=".7"/>
  <path fill="#DC5050" d="m15.07 20.169-.07.065-.077-.065C11.598 17.35 9.4 15.487 9.4 13.597c0-1.308 1.05-2.29 2.45-2.29 1.078 0 2.128.655 2.499 1.544h1.302c.371-.89 1.421-1.543 2.499-1.543 1.4 0 2.45.98 2.45 2.289 0 1.89-2.198 3.753-5.53 6.572ZM18.15 10c-1.218 0-2.387.53-3.15 1.36-.763-.83-1.932-1.36-3.15-1.36C9.694 10 8 11.576 8 13.597c0 2.465 2.38 4.486 5.985 7.54L15 22l1.015-.863C19.62 18.083 22 16.062 22 13.597 22 11.576 20.306 10 18.15 10Z"/>
  <path fill="#DC5050" d="m15 12.25.591-.75c.685-.87 1.696-1.5 2.909-1.5 1.937 0 3.5 1.508 3.5 3.375 0 .697-.218 1.342-.591 1.875C20.779 16.157 15 22 15 22s-5.779-5.843-6.409-6.75A3.251 3.251 0 0 1 8 13.375C8 11.508 9.563 10 11.5 10c1.213 0 2.232.63 2.909 1.5l.591.75Z"/>
</svg>
