<svg xmlns="http://www.w3.org/2000/svg" width="20" height="20" fill="none" viewBox="0 0 20 20">
  <path fill="#F5F5F0" d="M9.75 0a.75.75 0 0 1 .75.75v2a.75.75 0 1 1-1.5 0v-2A.75.75 0 0 1 9.75 0Zm0 16.004a.75.75 0 0 1 .75.75v2a.75.75 0 1 1-1.5 0v-2a.75.75 0 0 1 .75-.75ZM0 9.75A.75.75 0 0 1 .75 9h2a.75.75 0 0 1 0 1.5h-2A.75.75 0 0 1 0 9.75Zm16 0a.75.75 0 0 1 .75-.75h2a.75.75 0 1 1 0 1.5h-2a.75.75 0 0 1-.75-.75Zm1.28-7.53a.75.75 0 0 1 0 1.06l-2 2a.75.75 0 1 1-1.06-1.06l2-2a.75.75 0 0 1 1.06 0Zm-15.06 0a.75.75 0 0 1 1.06 0l2 2a.75.75 0 0 1-1.06 1.06l-2-2a.75.75 0 0 1 0-1.06Zm3.06 12a.75.75 0 0 1 0 1.06l-2 2a.75.75 0 0 1-1.06-1.06l2-2a.75.75 0 0 1 1.06 0Zm8.94 0a.75.75 0 0 1 1.06 0l2 2a.75.75 0 1 1-1.06 1.06l-2-2a.75.75 0 0 1 0-1.06ZM9.75 5a4.75 4.75 0 1 0 0 9.5 4.75 4.75 0 0 0 0-9.5Z"/>
</svg>
