<svg xmlns="http://www.w3.org/2000/svg" width="18" height="16" fill="none" viewBox="0 0 18 16">
  <path fill="#DC5050" d="m9 3 .76-1c.88-1.16 2.18-2 3.74-2C15.99 0 18 2.01 18 4.5c0 .93-.28 1.79-.76 2.5C16.43 8.21 9 16 9 16S1.57 8.21.76 7C.28 6.29 0 5.43 0 4.5 0 2.01 2.01 0 4.5 0c1.56 0 2.87.84 3.74 2L9 3Z"/>
  <path fill="#DC5050" d="m9.09 13.559-.09.087-.099-.087C4.626 9.8 1.8 7.316 1.8 4.796c0-1.744 1.35-3.052 3.15-3.052 1.386 0 2.736.872 3.213 2.058h1.674c.477-1.186 1.827-2.058 3.213-2.058 1.8 0 3.15 1.308 3.15 3.052 0 2.52-2.826 5.005-7.11 8.763ZM13.05 0A5.486 5.486 0 0 0 9 1.814 5.486 5.486 0 0 0 4.95 0C2.178 0 0 2.101 0 4.796c0 3.287 3.06 5.981 7.695 10.053L9 16l1.305-1.151C14.94 10.777 18 8.083 18 4.796 18 2.1 15.822 0 13.05 0Z"/>
</svg>
